PathFileType	4	(X/Y/Z)	/Users/niels/Desktop/University/Third Semester/Perception and Action/Exam/Gymnastics Motion Tracking/Code for Gym Tracking/Analyzed Data/Webcam_Backflip/id12_2_trajectory_Sports2D/id12_2_trajectory_Sports2D_px_person00.trc
DataRate	CameraRate	NumFrames	NumMarkers	Units	OrigDataRate	OrigDataStartFrame	OrigNumFrames
29.714285714285715	29.714285714285715	10	22	m	29.714285714285715	26	105
Frame#	Time	Hip			RHip			RKnee			RAnkle			RBigToe			RSmallToe			RHeel			LHip			LKnee			LAnkle			LBigToe			LSmallToe			LHeel			Neck			Head			Nose			RShoulder			RElbow			RWrist			LShoulder			LElbow			LWrist		
		X1	Y1	Z1	X2	Y2	Z2	X3	Y3	Z3	X4	Y4	Z4	X5	Y5	Z5	X6	Y6	Z6	X7	Y7	Z7	X8	Y8	Z8	X9	Y9	Z9	X10	Y10	Z10	X11	Y11	Z11	X12	Y12	Z12	X13	Y13	Z13	X14	Y14	Z14	X15	Y15	Z15	X16	Y16	Z16	X17	Y17	Z17	X18	Y18	Z18	X19	Y19	Z19	X20	Y20	Z20	X21	Y21	Z21	X22	Y22	Z22
26	0.875	0.986099593093429	-0.5758148964779115	0.0	0.9803984010308587	-0.5760036690263705	0.0	1.0939076110396928	-0.7592077351668371	0.0	1.0280535524362868	-0.962733401225381	0.0	1.1148418321101805	-1.0083857833557879	0.0	1.0928584303784215	-1.017657781627771	0.0	0.9999203061181144	-0.9867427517395959	0.0	0.9958111800693467	-0.5744221061343275	0.0	1.0930060427733588	-0.7577621657101634	0.0	1.0515341352158498	-0.9087945888720202	0.0	1.148188509709114	-0.9404382476711959	0.0	1.1292161929855637	-0.9380634046748696	0.0	1.0240395181891397	-0.9339903134631244	0.0	1.0863338745674505	-0.31419421014536536	0.0	1.1468693317321093	-0.19239690881861385	0.0	1.1616403088659601	-0.2676247791310807	0.0	1.0556857701481925	-0.3387758287755596	0.0	0.9829561254927088	-0.43940315081897535	0.0	0.9427910512684814	-0.5292212427243104	0.0	1.0749175912118722	-0.3425555266977734	0.0	0.9898195272249461	-0.44822820350820114	0.0	0.9585070452027651	-0.5367178648715758	0.0
27	0.9086538461538461	0.9943067767559062	-0.5891956017519066	0.0	0.9893225704336326	-0.5904197802429124	0.0	1.1022385873937117	-0.7721554891864869	0.0	1.025502705381016	-0.9685892317743107	0.0	1.113385631375983	-1.0112135950863728	0.0	1.0905557993594899	-1.0200460773553293	0.0	0.9973829906939883	-0.9925295046032568	0.0	1.0035303312896655	-0.5882893324627011	0.0	1.103428956996794	-0.7690567783237615	0.0	1.062194143538364	-0.898405675222348	0.0	1.161596616000541	-0.9228006263972909	0.0	1.1399757752857675	-0.9201863860153223	0.0	1.0374503968929303	-0.9215786351338772	0.0	1.0825243506195674	-0.3231567191974615	0.0	1.1383467590865688	-0.19934271920294355	0.0	1.1553910239841825	-0.27515884150550635	0.0	1.0559869145848855	-0.351846752761632	0.0	1.0271659328131406	-0.4621906799660075	0.0	1.0325889203295233	-0.5459778959291293	0.0	1.0668886369028943	-0.35334438992668177	0.0	1.0294002961735935	-0.4626193198660053	0.0	1.0230547033888038	-0.5371861537403159	0.0
28	0.9423076923076923	1.0025104689135906	-0.5966891900395258	0.0	0.9979453595641901	-0.5986590723438885	0.0	1.1070257141992255	-0.7825993453735659	0.0	1.0225879445388115	-0.9733523732376749	0.0	1.1114667899273938	-1.0140609993365661	0.0	1.0881027621863157	-1.0225907835127084	0.0	0.9948322438248747	-0.9972475991003541	0.0	1.0104565995810884	-0.5964335195594759	0.0	1.1098797022172173	-0.7778530972761225	0.0	1.0661875625849766	-0.8961179795863002	0.0	1.167103756843428	-0.9165857686317502	0.0	1.1439631173292586	-0.9135243079191783	0.0	1.0427318158749757	-0.9176203124308802	0.0	1.077266257706934	-0.3270498909470526	0.0	1.1289074979900164	-0.2024407463481937	0.0	1.1475915042272238	-0.2782711912337534	0.0	1.0552152620479744	-0.3579330326514608	0.0	1.073553121777617	-0.4639357853236078	0.0	1.1184079091280898	-0.5266079882571513	0.0	1.0566364681667766	-0.3577234209922003	0.0	1.0702181164366815	-0.45934425595092043	0.0	1.0921313956902774	-0.5118081378892037	0.0
29	0.9759615384615384	1.0107345776874022	-0.5948971346283661	0.0	1.0062835124974654	-0.5972827474966848	0.0	1.1072021868149236	-0.7870113056244655	0.0	1.0206882469308836	-0.9750694662487231	0.0	1.1093668094293978	-1.0160524874726675	0.0	1.0859450050268902	-1.0243453252424866	0.0	0.9936418631124546	-0.9990188823328198	0.0	1.0165188387778117	-0.5954041553083849	0.0	1.110601567600144	-0.7808433274730961	0.0	1.0614420691896826	-0.9049670942042216	0.0	1.162220208981222	-0.9270121076050593	0.0	1.139137568275361	-0.9233058813688566	0.0	1.037444833934139	-0.9258115991741629	0.0	1.0724064330156633	-0.32262463555376214	0.0	1.1209213630394117	-0.1992388154642884	0.0	1.1404532276198087	-0.2739559391993842	0.0	1.054837151648308	-0.3529978446088526	0.0	1.1165440249276117	-0.4384731372475555	0.0	1.186972483764908	-0.46840861641588327	0.0	1.0461613354036103	-0.3523771257471919	0.0	1.104916710246503	-0.4349146884877652	0.0	1.1506745987454463	-0.45762689229189685	0.0
30	1.0096153846153846	1.0188189103905163	-0.5820462442490246	0.0	1.014336174186909	-0.5845725486870341	0.0	1.102495148755164	-0.7828267938847435	0.0	1.0206673752397337	-0.9717981242022214	0.0	1.1069242705928912	-1.0156954492007209	0.0	1.0839072677299137	-1.0237083893938679	0.0	0.9946335534570102	-0.995964821512356	0.0	1.0218386051949346	-0.5832718963040686	0.0	1.104982035512101	-0.7752828430843195	0.0	1.0516375528945854	-0.9178955424028522	0.0	1.1498600025370898	-0.9462705747890671	0.0	1.1282030018797242	-0.9419216177110217	0.0	1.0260922378394415	-0.9394671088380022	0.0	1.0693579303998768	-0.3077806691697893	0.0	1.116305819530006	-0.18856009552858527	0.0	1.135753478271613	-0.2604595507079563	0.0	1.0556786292561195	-0.3347863261156841	0.0	1.1512286787997823	-0.38685717142685605	0.0	1.2304580857057241	-0.3803920699020741	0.0	1.0371344891218217	-0.3356045943897472	0.0	1.1273229586222664	-0.3923538228070927	0.0	1.1884082464576047	-0.3814471157049497	0.0
31	1.0432692307692306	1.0262067025812305	-0.5581981401017927	0.0	1.0217234902356345	-0.5606618086062105	0.0	1.0943965916905491	-0.7686486980144059	0.0	1.0229881318012979	-0.9616827279338627	0.0	1.1041390587743813	-1.0107277308765326	0.0	1.0820074589451811	-1.0183268318928382	0.0	0.9981989491544353	-0.9861865638358639	0.0	1.0261800769455862	-0.5599464300984406	0.0	1.0948445456098075	-0.7594101888111101	0.0	1.0427676784954159	-0.9235832438032546	0.0	1.1355555082853896	-0.9606061999295058	0.0	1.1160341853876525	-0.955962945843188	0.0	1.0160174598037168	-0.9471197595214002	0.0	1.0685287402800285	-0.28238187521929753	0.0	1.1163356022472868	-0.17122280024652964	0.0	1.1343129640381422	-0.23834918010099537	0.0	1.0573860836715956	-0.3033622929566032	0.0	1.1751481086679396	-0.31649850655862566	0.0	1.248266047333551	-0.2792498917362736	0.0	1.03053135647326	-0.30783461719313426	0.0	1.1345936278506326	-0.340541854215529	0.0	1.202528789423304	-0.2971819238433697	0.0
32	1.0769230769230769	1.031773057589024	-0.5253286376030026	0.0	1.027624734117593	-0.527500725970791	0.0	1.0866224145192238	-0.7441448843631606	0.0	1.0277153174475788	-0.9429102086681532	0.0	1.1016070804812608	-0.9982583096190776	0.0	1.0809239647779556	-1.0052783381325812	0.0	1.0042293841129288	-0.967738594711278	0.0	1.02832249742682	-0.5272154997673745	0.0	1.0845866085306182	-0.7327321421989457	0.0	1.0383867003736125	-0.9143656538489674	0.0	1.1233562592934727	-0.9601995146140754	0.0	1.1058453954375846	-0.9560799962916834	0.0	1.011584055352433	-0.9404883133692816	0.0	1.0694735292308821	-0.24866538053910855	0.0	1.1216447107279162	-0.14986385827024082	0.0	1.136071532378483	-0.2107632405832726	0.0	1.0592302976729169	-0.26130340968613175	0.0	1.1893476275423762	-0.23816874377219388	0.0	1.2463877811141728	-0.18311121883385148	0.0	1.0264613964176086	-0.27170468844205686	0.0	1.1281892077961926	-0.29077262164934137	0.0	1.1969060703110515	-0.22053464035820455	0.0
33	1.1105769230769231	1.0339984578606678	-0.48702952890831924	0.0	1.030893143971114	-0.48860141813615676	0.0	1.0841165564814375	-0.709768417685854	0.0	1.0346126106027869	-0.9137871225504395	0.0	1.1005683465663956	-0.9754964917934399	0.0	1.081816044850676	-0.9817414498034892	0.0	1.0121657079169775	-0.9386687607560029	0.0	1.0265315665101453	-0.48844867785634405	0.0	1.0796194125946137	-0.6961214914533077	0.0	1.0390238897610178	-0.8874785446613734	0.0	1.1146182693412914	-0.9408029165980462	0.0	1.0983473312846646	-0.9385899552699664	0.0	1.0131483578455038	-0.9158733877590596	0.0	1.071634917067564	-0.2109996788364878	0.0	1.1320825417398985	-0.12779024832385472	0.0	1.1405175015777125	-0.18232960489574002	0.0	1.0612141634069472	-0.21352942625115703	0.0	1.1974337516335058	-0.163173840986078	0.0	1.2349642492163342	-0.10611295298974496	0.0	1.0246555862696474	-0.23160653218008354	0.0	1.1143939552899216	-0.251279700152334	0.0	1.1811003921938281	-0.1628634650086697	0.0
34	1.1442307692307692	1.0316540223306039	-0.44766093884129954	0.0	1.0305329138526973	-0.448377186041685	0.0	1.0906199355713897	-0.6662894972475585	0.0	1.043753462091	-0.8732211118286947	0.0	1.1028800248247637	-0.9405066192662599	0.0	1.0862452233027258	-0.9456784614134336	0.0	1.0217954605887916	-0.8974448583037973	0.0	1.0198087640147677	-0.4480349282180952	0.0	1.0837214621523539	-0.651646526184498	0.0	1.0432214681498508	-0.8439609613815879	0.0	1.108405067276438	-0.9024423543850555	0.0	1.0923819071499872	-0.9039090960740708	0.0	1.018441455994766	-0.8732483644216547	0.0	1.0748224033251497	-0.17476671618341938	0.0	1.146263279138179	-0.10775149949648545	0.0	1.1468058072183756	-0.15730176778037405	0.0	1.0639361847166078	-0.16638379785345758	0.0	1.2030403509762064	-0.10168839890678487	0.0	1.2242458748775271	-0.05555025798512945	0.0	1.025115331805012	-0.19266815143701538	0.0	1.102617569856709	-0.22332613568439882	0.0	1.166920606541173	-0.12747442296808384	0.0
35	1.1778846153846154	1.024528343678743	-0.4113011423585263	0.0	1.0264287020010285	-0.41112051028262064	0.0	1.1063603798797854	-0.6145935994687882	0.0	1.0563205971662684	-0.821438018787169	0.0	1.111198562314971	-0.8923350778916112	0.0	1.09665795529121	-0.896090283251996	0.0	1.0344569868753755	-0.8440012363032192	0.0	1.008680404408496	-0.4105542411948595	0.0	1.0967280783703015	-0.6024311816033305	0.0	1.0483426354192535	-0.7881662818013843	0.0	1.1026258320241051	-0.8491885205770124	0.0	1.0860889651946668	-0.8556506949181132	0.0	1.024064889032259	-0.8162170693036973	0.0	1.0789853327632528	-0.14459251794119302	0.0	1.1613596831975723	-0.09124335578993475	0.0	1.1536834429634162	-0.1380662794409382	0.0	1.067593267289395	-0.12600850743377248	0.0	1.2075939355860406	-0.061598315735433805	0.0	1.2209025790055548	-0.03183968068791826	0.0	1.0281554649202624	-0.15955028536342314	0.0	1.1010038442299481	-0.20380430015323872	0.0	1.163069429412624	-0.11127564190111326	0.0
